<?xml version="1.0" encoding="UTF-8"?> <svg xmlns="http://www.w3.org/2000/svg" xmlns:xlink="http://www.w3.org/1999/xlink" width="38" height="14" viewBox="0 0 38 14"> <defs> <path id="gyj9a" d="M740.92 282.9v.01l-3.6.07-.27-.22-1.16-1.38h1.8v-.21h-1.99l-.08-.11-.17-.23h-1.4l.2.48v.83h-.54l-1.57-1.94h-.03l.52-1.05v-.24h-4.45v.46h-.14l-.43-1.69.02.06.87-.5h.16v-.35h-.18v-.48h.23v-.07h-.55v.07h.22v.48h-.42v-.75h.13v-.12h.32v-.08h-1v.08h.3v.12h.13v.75h-.43l-.26-1.03h-.44v-.84h-.1v-.83h.43v-.11h-.44v-.31h.44v-.11h-.44v-.17h.14v-.35h.15V273h-.68v.14h.14v.35h.14v.17h-.45v.11h.45v.3h-.45v.12h.45v.83h-.11v1.87h-1.28v.35h.16l1.12.5v1.63h-.83v1.38h-.82l-.47-1.33-.28-.93-2.85.2v.18h.56l-.28 1.7h.01l-.25 1.65-.15.88-.18.64-9.16.13v1.59h-1.6v-.76h.47v-.25h-.15c.08-.1.13-.21.13-.35a.54.54 0 0 0-1.09 0c0 .14.06.25.14.35h-.16v.25h.47v.76H708l.4 1.54h34.15l3.45-4.1z"></path> </defs> <g> <g transform="translate(-708 -273)"> <use fill="#fff" xlink:href="#gyj9a"></use> </g> </g> </svg> 