<?xml version="1.0" encoding="UTF-8"?> <svg xmlns="http://www.w3.org/2000/svg" xmlns:xlink="http://www.w3.org/1999/xlink" width="53" height="21" viewBox="0 0 53 21"> <defs> <path id="tew9a" d="M702.86 279.76c-.16-.45-2.06 1.64-2.06 1.64l-9.21.38c.03-.1.03-.2.04-.31 0-.17-.22-.6-.22-.6s.52.01.64-.02l.01-.07 1.4-.08-.01-.16-1.42.08v-.02l-.09-.04-.61.01s-.21-.17-.5-.46c-.42-.43-.7-.34-.7-.34h-1.55c-.66.08-.6.74-.6.74l.01 1.33-.33.1a.37.37 0 0 0-.26-.14 3.2 3.2 0 0 0-1.12.1.74.74 0 0 0-.21.1l-1.31.06-.05-.14h-.54s-.04-.62-.13-1.6c-.08-.98-.35-1.73-.35-1.73l-.18-.45h-.96l-.02.24h-.42l-.04-.27-.05-2.04c-.16-.83-1.12-1.17-1.63-1.17a1.62 1.62 0 0 0-1.54 1.42c-.02.18 0 .98 0 .98l-.05.02-.73-.02-.06-1.53 1.6-1.46h.1v-.15h-.34v.05h-1.79v.07l-.04.2-.3-.01-.02-.18-.25-.03s-.02-.2 0-.22l.23-.01c.1-.02.44-.24.57-.3.11-.06.12-.17.14-.34.02-.5-.38-.82-.57-.9-.19-.1-.45.07-.95.26-.54.32-.52.79-.4 1.04.1.25.32.23.32.23l-.04.3-1.09.03-.06.37-.2.04.04 1.93h-.24v-4.63h.93v-.14h-.02v-.84h-.97v.15h-.07v-.32c.22-.09.39-.3.39-.56a.62.62 0 0 0-.62-.61h-.07v-1.73h-.06v1.74c-.28.06-.5.3-.5.6 0 .24.15.44.35.55v.33h-1.12v-1.06h.2v-.08h-.2v-.31h.24v-.1h-.24v-.52h.24v.02h.1v-.23h.36v-.17h.48v-.05h-.84v-.2l.24-.08v-.07h.68v-.08h-.3v-.08h-.66v-.17h-.38v-.42h.1v-.82h.22v-.03h-.22V266h-.14v.78h-.4v.03h.4-.29v.02h.3v.71h-.2v.51h-.44v.17h-.28v.13h.45v.03h-.81v.2h.32l.49.32v.78h-.08v.1h.08v1.45h-.01v.7h-.01v.13h.04l.02.15 1.17 1.13-.16 3.35h-.16v-.95s-.08-.24-.32-.3c-.41-.08-.5.26-.5.31V276.69h-.46v.04h.46V276.94h.1v1.76l-1-.02-.04.25s-1.95.41-2.5.54c-.54.13-1.1.26-1.41.41-.32.15-.37.3-.37.3h-1.8l-.53.33h-.45l-.13-.41-.13-.06-.02-.23c0-.11-.04-.18-.06-.29-.04-.1-.22-.1-.63-.1-.41-.02-.4.13-.44.2l-.84-.39-.04.1.86.39-.06.24-.22.06c-.02 0-.16.4-.16.4l-.23.01v-.07l-.15-.02-.16-.42s-.1 0-.1-.07c.04-.08-.05-.41-.07-.44 0-.03-.07-.1-.15-.1-.08 0-.82-.01-.9.06-.03.03-.06.1-.08.19l-.83-.4-.04.09.85.4a.47.47 0 0 0-.02.1l-.03.15-.17.04-.15.4-.36.02c-.05.06-.13.4-.13.4l-1.2.06-.03-.19-.48.01-.04.18-1.64.03-.53 2s-.18.03-.25 0c.1-.17-.07-.3-.07-.3l-.38-.02-.05-.1c0-.04-.18-.43-.18-.43s-.09-.2-.19-.27-.13-.06-.1-.1c.01-.04.02-.1-.05-.21-.07-.12-.26-.3-.43-.2-.17.1-.6.64-.58.77.02.13.12.15.12.15l-.32.46s-1.1-.03-1.37.01h-.07v-1.66c.03.04.1.15.14.3.05.18 0 .24.03.4.02.17.05.3.13.43.1.13.15.39.15.39s.01.04.05-.14a.93.93 0 0 1 .26-.5c.15-.11.26-.12.26-.12l-.16-.16c-.11-.12-.07-.17-.17-.6-.1-.42-.11-.42-.28-.58-.17-.16-.2-.22-.3-.52-.06-.13-.09-.17-.1-.18v-.05h-.08v3c-.47.05-1.72.15-1.87.25-.25.75.15 3.28.26 3.9l.04.23h46.8l.16-.2c.23-.32 1.15-1.57 1.57-2.1.46-.57 2.28-2.4 2.44-2.57h.03v-.76l-.46.02s1.25-1.48 1.58-1.4c.33.07.4.23.5.31 0-.16.01-.1-.14-.54"></path> </defs> <g> <g transform="translate(-650 -266)"> <use fill="#fff" xlink:href="#tew9a"></use> </g> </g> </svg> 