<?xml version="1.0" encoding="UTF-8"?> <svg xmlns="http://www.w3.org/2000/svg" xmlns:xlink="http://www.w3.org/1999/xlink" width="38" height="11" viewBox="0 0 38 11"> <defs> <path id="qi3da" d="M790.02 281.1h-2.4l-.22-.18v-2.4a.6.6 0 0 0-.6-.57h-2V276h-.2v1.95h-.49v-1.17h.22v-.17h-.22v-.3h-.1v.3h-.22v.17h.23v1.17h-1.54a.3.3 0 0 0-.3-.3h-.53a.3.3 0 0 0-.3.3H781V276h-.2v1.95h-.57v2.92l-11.62.22h-.63c-1.5 0-3.4.2-5.28.47h-1.33s-.77-.09-.99-.3c-.22-.2-.94-2.07-.94-2.07h-1.02l-.27 2.9v.2l-.7.1-.55.1-.14.02-.1.02-.89.23v-.99c-.1 0-.19.09-.19.19v.85c-.36.12-.58.21-.58.29 0 .07.22.17.58.28v1.04c.11 0 .2-.08.2-.18v-.8l.76.2.11.02.25.05 1.25.27v-.09.2l.02.25.25 2.66h1.02s.72-1.86.94-2.07c.1-.1.33-.16.53-.2l.35-.07.12-.01h-.02l.7-.14c2.08.31 4.26.55 5.92.55h22.04c1.73 0 2.98-1.02 2.98-1.98s-1.25-1.99-2.98-1.99"></path> </defs> <g> <g transform="translate(-755 -276)"> <use fill="#fff" xlink:href="#qi3da"></use> </g> </g> </svg> 