<?xml version="1.0" encoding="UTF-8"?> <svg xmlns="http://www.w3.org/2000/svg" xmlns:xlink="http://www.w3.org/1999/xlink" width="154" height="39" viewBox="0 0 154 39"> <defs> <path id="6ajha" d="M129 37h.6l4.9 6.42h.02V37h.48v7h-.56l-4.94-6.47h-.02V44H129z"></path> <path id="6ajhb" d="M138.26 37l2.74 7h-.46l-.87-2.25h-3.33l-.88 2.25H135l2.79-7zm1.27 4.38l-1.49-3.96h-.02l-1.54 3.96z"></path> <path id="6ajhc" d="M143.99 43.63h.02l2.54-6.63h.45l-2.74 7h-.53L141 37h.47z"></path> <path id="6ajhd" d="M150.26 37l2.74 7h-.46l-.87-2.25h-3.33l-.88 2.25H147l2.79-7zm1.27 4.38l-1.49-3.96h-.02l-1.54 3.96z"></path> <path id="6ajhe" d="M153 37h.3v6.63h2.7V44h-3z"></path> <path id="6ajhf" d="M133.06 48.27c-.05-1.02-.8-1.53-1.9-1.53-.67 0-1.62.28-1.62 1.27 0 .97 1 1.13 2 1.34 1.02.21 2.03.47 2.03 1.66 0 1.24-1.18 1.69-2.08 1.69-1.38 0-2.5-.58-2.49-2.13h.36c-.07 1.32.96 1.8 2.13 1.8.71 0 1.71-.32 1.71-1.36 0-1.02-1-1.19-2.02-1.4-1-.2-2-.45-2-1.6 0-1.15 1.05-1.59 1.98-1.59 1.23 0 2.2.54 2.26 1.85z"></path> <path id="6ajhg" d="M135.19 49.6v2.95h-.37v-5.99h.37v2.72h3.77v-2.72h.36v6h-.36V49.6z"></path> <path id="6ajhh" d="M140.78 52.55h.37v-5.99h-.37z"></path> <path id="6ajhi" d="M142.6 46.56h2.52c.67 0 1.72.24 1.72 1.68 0 1.05-.68 1.64-1.86 1.64h-2.01v2.68h-.37zm.37 3h2.07c1.07 0 1.43-.7 1.43-1.33 0-.44-.2-1.35-1.38-1.35h-2.12z"></path> <path id="6ajhj" d="M147.9 46.56h2.37c1.4 0 1.86.78 1.86 1.55 0 .65-.46 1.2-1.15 1.28l.02.02c.15-.03 1.33.26 1.33 1.47 0 1.08-.83 1.67-2.06 1.67h-2.37zm.37 2.72h2c.98 0 1.5-.5 1.5-1.24 0-.86-.72-1.16-1.5-1.16h-2zm0 2.95h2c1.04 0 1.7-.47 1.7-1.35 0-1.03-.92-1.28-1.7-1.28h-2z"></path> <path id="6ajhk" d="M153.9 46.56v3.6c0 .72.14 2.22 1.85 2.22 1.45 0 1.93-.87 1.93-2.23v-3.59h.37v3.6c0 1.42-.53 2.54-2.3 2.54-2.1 0-2.22-1.75-2.22-2.55v-3.59z"></path> <path id="6ajhl" d="M159.5 52.55h.37v-5.99h-.37z"></path> <path id="6ajhm" d="M161.32 46.56h.37v5.67h3.34v.32h-3.71z"></path> <path id="6ajhn" d="M165.87 46.56h1.94c2.1 0 2.73 1.47 2.73 2.99 0 1.7-.85 3-2.75 3h-1.92zm.37 5.67h1.59c1.1 0 2.35-.6 2.35-2.68 0-2.45-1.56-2.67-2.43-2.67h-1.51z"></path> <path id="6ajho" d="M171.8 52.55h.37v-5.99h-.37z"></path> <path id="6ajhp" d="M173.62 46.56h.46l3.73 5.5h.02v-5.5h.36v6h-.43L174 47h-.01v5.54h-.37z"></path> <path id="6ajhq" d="M184.78 49.62v2.94h-.32v-1.28h-.02c-.28.87-1.18 1.42-2.23 1.42-1.79 0-2.78-1.39-2.78-3.1 0-1.7 1.01-3.18 2.8-3.18 1.2 0 2.24.75 2.45 2h-.35c-.27-1.04-1.03-1.68-2.1-1.68-1.6 0-2.43 1.36-2.43 2.85 0 1.53.8 2.79 2.43 2.79 1.4 0 2.29-.97 2.23-2.44h-2.17v-.32z"></path> <path id="6ajhr" d="M133.97 57.44c-.15-1-1.02-1.6-2-1.6-1.55 0-2.45 1.27-2.45 2.81s.9 2.82 2.45 2.82c1.14 0 2.04-1.04 2.1-2.16h.37c-.13 1.43-1.18 2.48-2.47 2.48-1.78 0-2.82-1.38-2.82-3.14 0-1.75 1.04-3.14 2.82-3.14 2.09 0 2.36 1.85 2.37 1.93z"></path> <path id="6ajhs" d="M138.17 61.79c-1.78 0-2.82-1.38-2.82-3.14 0-1.75 1.04-3.14 2.82-3.14 1.76 0 2.8 1.39 2.8 3.14 0 1.76-1.04 3.14-2.8 3.14m0-.32c1.53 0 2.44-1.28 2.44-2.82 0-1.54-.9-2.82-2.44-2.82-1.55 0-2.45 1.28-2.45 2.82 0 1.54.9 2.82 2.45 2.82"></path> <path id="6ajht" d="M142.16 55.65h.37v5.67h3.34v.32h-3.71z"></path> <path id="6ajhu" d="M146.71 55.65h.37v5.67h3.35v.32h-3.72z"></path> <path id="6ajhv" d="M155.28 61.32v.32h-4.02v-5.99h3.97v.32h-3.6v2.4h3.39v.32h-3.4v2.63z"></path> <path id="6ajhw" d="M161.44 58.7v2.95h-.32v-1.28h-.02c-.28.87-1.19 1.42-2.23 1.42-1.79 0-2.78-1.39-2.78-3.1 0-1.7 1-3.18 2.79-3.18 1.21 0 2.25.75 2.46 2h-.35c-.27-1.04-1.03-1.68-2.1-1.68-1.6 0-2.44 1.36-2.44 2.85 0 1.53.81 2.79 2.44 2.79 1.4 0 2.29-.97 2.23-2.44h-2.18v-.32z"></path> <path id="6ajhx" d="M166.86 61.32v.32h-4.01v-5.99h3.97v.32h-3.6v2.4h3.39v.32h-3.4v2.63z"></path> <path id="6ajhy" d="M45.64 27.02c5.86 0 9.5 3.23 9.5 9.59v24.9h-4.98V36.88c0-3.95-2.42-4.77-4.52-4.77h-9.55v29.4h-4.97V27.02z"></path> <path id="6ajhz" d="M74.26 26.93c5.73 0 9.05 3.18 9.36 8.36l.1 1.23v2h-5.03V36.2c-.22-3-1.43-4-4.65-4.23h-4.7c-3.86.41-4.71 2.5-4.71 4.6v1.18c0 2 .85 3.63 4.66 3.95h4.97c6.27.46 9.4 3.68 9.4 9.68v.77c0 6-3.13 9.18-9.4 9.64h-5.2c-6.1-.41-9.45-3.5-9.45-9.18v-2.55h5.02v2.05c0 3.13 1.34 4.4 4.7 4.63l2.33.1c4.08 0 7.03-.64 7.03-4.69v-.77c0-1.91-.8-4.18-4.52-4.6h-5.11c-6.23-.45-9.45-3.17-9.45-9.03v-1.19c0-5.95 3.18-9.63 9.45-9.63z"></path> <path id="6ajhA" d="M101.54 27.02c4.97 0 10.71 1.55 10.71 9.73v2.86h-4.97v-2.86c0-4.23-3-4.64-6.28-4.69h-.62c-3.86.05-7.21.1-7.21 4.69V52c0 4.55 3.35 4.64 7.2 4.69h.6c3.3-.05 6.3-.46 6.3-4.69v-2.86h4.98v2.86c0 6.32-3.54 9.73-10.75 9.73h-2.15c-4.84-.04-11.16-1.32-11.16-9.73V36.75c0-8.5 6.36-9.73 11.11-9.73z"></path> <path id="6ajhB" d="M149.78 27.9c-.06-.17-.8.66-.8.66l-3.6.15.01-.13c0-.06-.09-.23-.09-.23h.26v-.03l.54-.04v-.06l-.55.03-.04-.02h-.24l-.2-.18c-.16-.17-.27-.14-.27-.14h-.6c-.26.04-.24.3-.24.3v.52l-.12.04a.14.14 0 0 0-.1-.05c-.1-.01-.3-.01-.44.04a.28.28 0 0 0-.09.04l-.5.02-.03-.05h-.2l-.06-.64c-.03-.38-.14-.68-.14-.68l-.07-.18h-.37l-.01.1h-.16l-.02-.11-.02-.8c-.06-.34-.44-.47-.64-.47-.52.06-.6.5-.6.56v.4h-.31l-.02-.62.62-.58h.04v-.05h-.13v.02h-.7v.02l-.01.08h-.12v-.07l-.1-.01v-.09h.08c.04-.01.18-.1.22-.13.05-.02.06-.06.06-.13 0-.2-.15-.32-.22-.36-.07-.03-.18.04-.37.11-.21.12-.2.31-.16.4.04.11.13.1.13.1l-.02.12-.42.01-.03.15-.08.01.02.77h-.1v-1.83h.37v-.06h-.01v-.33h-.38v.06h-.03v-.13a.24.24 0 0 0 .15-.22.24.24 0 0 0-.24-.24h-.03v-.68h-.02v.68a.24.24 0 1 0-.06.45v.14h-.43v-.42h.07v-.03h-.07v-.13h.08v-.03h-.08v-.2h.13v-.1h.14v-.06h.19v-.02h-.33v-.08l.1-.03v-.03h.26v-.03h-.12v-.03h-.26v-.07h-.15v-.16h.04v-.33h.08v-.01h-.08v-.31h-.05v.3h-.15v.02h.15-.12v.01h.12v.28h-.08v.2h-.17v.07h-.11v.05h.18v.01h-.32v.08h.13l.19.13v.3h-.04v.04h.04v.85h-.01v.06h.02v.06l.46.44-.06 1.33h-.06v-.38s-.04-.1-.13-.11c-.16-.04-.2.1-.2.12v.36h-.18v.02h.19v.08h.03v.7h-.4v.1l-.98.2c-.21.06-.43.11-.55.17-.13.06-.15.12-.15.12h-.7l-.2.13h-.19l-.05-.16-.05-.03v-.09c0-.04-.02-.07-.03-.11-.01-.05-.08-.04-.24-.05-.17 0-.16.06-.18.08l-.32-.15-.02.04.33.16-.02.1-.08.02-.07.15h-.09v-.02h-.05l-.07-.18s-.04 0-.03-.02a.47.47 0 0 0-.03-.18s-.03-.04-.06-.04-.32 0-.35.03c-.02.01-.03.04-.04.07l-.32-.16-.02.04.33.16v.04l-.02.06h-.06l-.06.17-.14.01c-.02.02-.05.16-.05.16l-.47.02-.01-.07h-.2v.07l-.65.01-.2.8h-.1c.04-.07-.03-.13-.03-.13h-.15l-.02-.04-.07-.17s-.03-.08-.07-.11l-.05-.04c.01-.02.01-.04-.01-.08-.03-.05-.1-.12-.17-.08-.07.04-.23.25-.22.3 0 .05.04.06.04.06l-.12.18h-.54l-.03.01v-.66c.01.02.04.06.05.12.02.07 0 .1.02.16 0 .07.02.11.05.17.03.05.05.15.05.15s.01.01.03-.05a.36.36 0 0 1 .1-.2c.06-.05.1-.05.1-.05l-.06-.06c-.05-.05-.03-.07-.07-.24-.04-.16-.04-.16-.11-.23-.07-.06-.07-.09-.12-.2-.02-.06-.03-.07-.04-.07v-.02h-.02v1.18c-.2.02-.68.06-.74.1-.1.3.06 1.3.1 1.54l.02.1h18.31l.07-.09c.08-.12.44-.62.61-.82.18-.23.9-.95.95-1.02h.02V28.55h-.18s.48-.58.61-.55c.13.03.16.1.2.13 0-.07 0-.05-.06-.22"></path> <path id="6ajhC" d="M164.96 29l-1.42.03-.1-.08-.46-.55h.7v-.09h-.78l-.03-.04-.07-.1h-.54l.08.2v.33h-.22l-.62-.77.2-.42v-.1h-1.76v.18h-.05l-.17-.67v.02l.35-.2h.06v-.14h-.07v-.19h.1v-.03h-.22v.03h.08v.2h-.17v-.3h.06v-.05h.12v-.03h-.4v.03h.13v.04h.05v.3h-.17l-.1-.4h-.17v-.34h-.05v-.34h.17v-.04h-.17v-.12h.17v-.05h-.17v-.06h.06v-.14h.05v-.06h-.26v.06h.06v.14h.05v.06h-.18v.05h.18v.12h-.18v.04h.18v.34h-.04v.74h-.5v.14h.05l.45.2v.65h-.33v.55h-.33l-.18-.53-.11-.37-1.12.08v.07h.22l-.11.69-.1.65-.05.36-.08.25-3.6.05v.64h-.63v-.3h.19v-.1h-.07a.21.21 0 0 0-.16-.36c-.12 0-.21.1-.21.21 0 .06.02.1.05.14h-.06v.1h.19v.3H152l.16.62h13.44l1.36-1.63z"></path> <path id="6ajhD" d="M181.74 27.84h.06v-.31h.07v-.47h-.19v.47h.06z"></path> <path id="6ajhE" d="M180.73 27.84h.04v-.24h.08v-.24h-.21v.24h.09z"></path> <path id="6ajhF" d="M183.47 29.14h-.93l-.08-.08v-.98c0-.13-.11-.24-.24-.24h-.78v-.8h-.07v.8h-.2v-.48h.1v-.07h-.1v-.12h-.03v.12h-.08v.07h.08v.48h-.6a.12.12 0 0 0-.12-.12h-.2a.12.12 0 0 0-.12.12h-.13v-.8h-.08v.8h-.22v1.2l-4.51.1h-.25c-.58 0-1.32.08-2.05.19h-.51s-.3-.04-.39-.12a6.56 6.56 0 0 1-.37-.86h-.4l-.1 1.2v.08l-.27.04-.21.04-.06.01-.03.01c-.14.03-.25.06-.35.1v-.42c-.04 0-.07.04-.07.08v.35c-.15.05-.23.1-.23.12 0 .03.08.07.23.12v.42c.04 0 .07-.03.07-.07v-.33l.3.08h.04l.1.04.48.1v-.03.18l.1 1.1h.4s.29-.77.37-.85a.47.47 0 0 1 .2-.09l.14-.03h.04l.27-.06c.8.13 1.66.23 2.3.23h8.56c.67 0 1.16-.42 1.16-.82 0-.4-.49-.81-1.16-.81"></path> <path id="6ajhG" d="M120.08 61.56h.48V27.15h-.48z"></path> </defs> <g> <g transform="translate(-31 -23)"> <g> <use fill="#122c50" xlink:href="#6ajha"></use> </g> <g> <use fill="#122c50" xlink:href="#6ajhb"></use> </g> <g> <use fill="#122c50" xlink:href="#6ajhc"></use> </g> <g> <use fill="#122c50" xlink:href="#6ajhd"></use> </g> <g> <use fill="#122c50" xlink:href="#6ajhe"></use> </g> <g> <g> <use fill="#122c50" xlink:href="#6ajhf"></use> </g> <g> <use fill="#122c50" xlink:href="#6ajhg"></use> </g> <g> <use fill="#122c50" xlink:href="#6ajhh"></use> </g> <g> <use fill="#122c50" xlink:href="#6ajhi"></use> </g> <g> <use fill="#122c50" xlink:href="#6ajhj"></use> </g> <g> <use fill="#122c50" xlink:href="#6ajhk"></use> </g> <g> <use fill="#122c50" xlink:href="#6ajhl"></use> </g> <g> <use fill="#122c50" xlink:href="#6ajhm"></use> </g> <g> <use fill="#122c50" xlink:href="#6ajhn"></use> </g> <g> <use fill="#122c50" xlink:href="#6ajho"></use> </g> <g> <use fill="#122c50" xlink:href="#6ajhp"></use> </g> <g> <use fill="#122c50" xlink:href="#6ajhq"></use> </g> <g> <use fill="#122c50" xlink:href="#6ajhr"></use> </g> <g> <use fill="#122c50" xlink:href="#6ajhs"></use> </g> <g> <use fill="#122c50" xlink:href="#6ajht"></use> </g> <g> <use fill="#122c50" xlink:href="#6ajhu"></use> </g> <g> <use fill="#122c50" xlink:href="#6ajhv"></use> </g> <g> <use fill="#122c50" xlink:href="#6ajhw"></use> </g> <g> <use fill="#122c50" xlink:href="#6ajhx"></use> </g> <g> <use fill="#122c50" xlink:href="#6ajhy"></use> </g> <g> <use fill="#00649d" xlink:href="#6ajhz"></use> </g> <g> <use fill="#76838e" xlink:href="#6ajhA"></use> </g> <g> <use fill="#122c50" xlink:href="#6ajhB"></use> </g> <g> <use fill="#122c50" xlink:href="#6ajhC"></use> </g> <g> <use fill="#122c50" xlink:href="#6ajhD"></use> </g> <g> <use fill="#122c50" xlink:href="#6ajhE"></use> </g> <g> <use fill="#122c50" xlink:href="#6ajhF"></use> </g> <g> <use fill="#122c50" xlink:href="#6ajhG"></use> </g> </g> </g> </g> </svg> 